<svg xmlns="http://www.w3.org/2000/svg" version="1.1" xmlns:xlink="http://www.w3.org/1999/xlink" xmlns:svgjs="http://svgjs.dev/svgjs" width="1440" height="560" preserveAspectRatio="none" viewBox="0 0 1440 560"><g mask="url(&quot;#SvgjsMask1002&quot;)" fill="none"><rect width="1440" height="560" x="0" y="0" fill="url(&quot;#SvgjsLinearGradient1003&quot;)"></rect><path d="M1440 0L967.74 0L1440 24.11z" fill="rgba(255, 255, 255, .1)"></path><path d="M967.74 0L1440 24.11L1440 199.26L800.36 0z" fill="rgba(255, 255, 255, .075)"></path><path d="M800.36 0L1440 199.26L1440 201.84L410.96000000000004 0z" fill="rgba(255, 255, 255, .05)"></path><path d="M410.96000000000004 0L1440 201.84L1440 443.96000000000004L403.14000000000004 0z" fill="rgba(255, 255, 255, .025)"></path><path d="M0 560L667.97 560L0 454.29z" fill="rgba(0, 0, 0, .1)"></path><path d="M0 454.29L667.97 560L704.6600000000001 560L0 359.70000000000005z" fill="rgba(0, 0, 0, .075)"></path><path d="M0 359.7L704.6600000000001 560L879.07 560L0 150.48999999999998z" fill="rgba(0, 0, 0, .05)"></path><path d="M0 150.49L879.07 560L1131.8500000000001 560L0 53.34z" fill="rgba(0, 0, 0, .025)"></path></g><defs><mask id="SvgjsMask1002"><rect width="1440" height="560" fill="#ffffff"></rect></mask><linearGradient x1="15.28%" y1="-39.29%" x2="84.72%" y2="139.29%" gradientUnits="userSpaceOnUse" id="SvgjsLinearGradient1003"><stop stop-color="#0e2a47" offset="0"></stop><stop stop-color="#00459e" offset="1"></stop></linearGradient></defs></svg>